<svg width="30" height="30" viewBox="0 0 30 30" fill="none" xmlns="http://www.w3.org/2000/svg">
<path fill-rule="evenodd" clip-rule="evenodd" d="M5 0C2.23859 0 0 2.23858 0 5V25C0 27.7614 2.23859 30 5 30H25C27.7614 30 30 27.7614 30 25V5C30 2.23858 27.7614 0 25 0H5ZM6 2C3.79083 2 2 3.79086 2 6V24C2 26.2091 3.79083 28 6 28H24C26.2092 28 28 26.2091 28 24V6C28 3.79086 26.2092 2 24 2H6Z" fill="#3E4450"/>
<path d="M10 13L15 18" stroke="#3E4450" stroke-width="2" stroke-linecap="round"/>
<path d="M20 13L15 18" stroke="#3E4450" stroke-width="2" stroke-linecap="round"/>
</svg>
